#!OML:ASF H:\charlestonDancing\Project 1\Capture day 1\Session 1\femaleDancer.ASF
:FULLY-SPECIFIED
:DEGREES
103
root -1.19907 17.5341 5.95212 541.036 -82.5041 -538.629
lowerback 23.8396 -5.24264 0.747684
upperback 7.35058 -7.33917 -1.72445
thorax -5.42014 -3.81254 -0.215709
lowerneck 0.609551 -3.59693 -2.17451
upperneck -0.877969 -4.89021 -2.49406
head -0.375606 -2.44472 -0.376357
rclavicle 9.30312e-014 3.18055e-015
rhumerus -36.1062 -16.2733 -51.9592
rradius 86.0687
rwrist -46.4297
rhand -8.92111 -30.2811
rfingers 7.12502
rthumb 17.0224 -59.5552
lclavicle 9.30312e-014 3.18055e-015
lhumerus 20.4474 5.61514 68.4995
lradius 67.4865
lwrist -6.28714
lhand -29.4456 11.2292
lfingers 7.12502
lthumb -2.78208 41.1908
rfemur -55.0275 15.7934 13.5701
rtibia 38.2275
rfoot -19.7413 7.01678
rtoes -29.9641
lfemur -22.2706 -2.01709 -27.3334
ltibia 38.905
lfoot -12.9299 -0.396258
ltoes -16.0487
104
root -1.20279 17.5088 5.95017 542.91 -81.5928 -540.485
lowerback 24.0892 -4.68034 0.54752
upperback 7.22371 -6.65642 -1.66212
thorax -5.64147 -3.47899 -0.202496
lowerneck 0.618162 -2.88626 -1.66679
upperneck -0.839036 -3.95556 -3.45863
head -0.395632 -1.97834 -0.756157
rclavicle -5.56597e-015 1.66979e-014
rhumerus -37.0659 -16.7245 -51.262
rradius 86.6961
rwrist -46.3203
rhand -9.14943 -29.9928
rfingers 7.12502
rthumb 16.8026 -59.2858
lclavicle -5.56597e-015 1.66979e-014
lhumerus 18.3772 4.27663 69.1165
lradius 68.5952
lwrist -5.97173
lhand -30.627 12.4409
lfingers 7.12502
lthumb -3.92295 42.3845
rfemur -55.8466 16.1875 13.8105
rtibia 43.4464
rfoot -20.6169 5.59939
rtoes -34.7281
lfemur -22.4657 -1.53228 -27.597
ltibia 39.1932
lfoot -13.2473 -0.168521
ltoes -15.9448
105
root -1.21585 17.5028 5.94429 542.041 -80.684 -539.514
lowerback 24.2713 -4.26202 0.722356
upperback 7.15698 -6.066 -1.48578
thorax -5.79179 -3.1937 -0.26228
lowerneck 0.480492 -1.8814 -0.897346
upperneck -0.712501 -2.62628 -4.84688
head -0.354651 -1.31964 -1.32627
rclavicle -8.70677e-014 -2.22639e-014
rhumerus -37.5316 -17.2104 -50.8964
rradius 87.0148
rwrist -45.9076
rhand -9.0603 -29.5954
rfingers 7.12502
rthumb 16.8884 -58.8811
lclavicle -8.70677e-014 -2.22639e-014
lhumerus 15.6689 2.97024 69.581
lradius 69.759
lwrist -5.83157
lhand -31.6076 13.1688
lfingers 7.12502
lthumb -4.8698 43.0928
rfemur -56.6841 16.9144 14.3072
rtibia 49.5791
rfoot -20.1197 3.42391
rtoes -37.5924
lfemur -22.6114 -1.23131 -27.382
ltibia 39.3643
lfoot -13.6401 0.27112
ltoes -16.0575
106
root -1.22857 17.5405 5.9464 540.866 -79.9799 -538.179
lowerback 24.3595 -4.08151 1.03622
upperback 7.13421 -5.74357 -1.23385
thorax -5.85565 -3.04036 -0.252716
lowerneck 0.289492 -0.594209 -0.188048
upperneck -0.434222 -0.910745 -6.35133
head -0.21393 -0.47521 -1.94055
rclavicle 1.06151e-013 3.18055e-015
rhumerus -37.3536 -17.5394 -50.8718
rradius 87.0589
rwrist -45.3999
rhand -8.91985 -29.5211
rfingers 7.12502
rthumb 17.0236 -58.7952
lclavicle 1.06151e-013 3.18055e-015
lhumerus 12.2275 1.96364 70.1538
lradius 70.8086
lwrist -5.87323
lhand -32.3899 13.1092
lfingers 7.12502
lthumb -5.62514 43.0145
rfemur -57.5666 17.5857 14.8863
rtibia 56.4495
rfoot -19.5159 1.23799
rtoes -37.3271
lfemur -22.6005 -1.20057 -27.0818
ltibia 39.1978
lfoot -13.8243 1.16007
ltoes -17.0221
107
root -1.24956 17.5733 5.95272 538.542 -79.3317 -535.556
lowerback 24.2526 -3.97165 1.66537
upperback 7.17023 -5.43601 -0.903531
thorax -5.77529 -2.89727 -0.348958
lowerneck 0.12135 0.815954 0.616343
upperneck -0.0577773 0.985684 -7.86165
head 0.00701857 0.454274 -2.58511
rclavicle -1.78906e-014 2.14687e-014
rhumerus -37.0088 -17.8995 -50.9462
rradius 87.0239
rwrist -45.1443
rhand -9.08185 -29.5462
rfingers 7.12502
rthumb 16.8677 -58.8336
lclavicle -1.78906e-014 2.14687e-014
lhumerus 8.33439 0.964574 71.0234
lradius 71.6801
lwrist -5.99373
lhand -33.023 12.4979
lfingers 7.12502
lthumb -6.23638 42.3861
rfemur -58.298 18.3324 15.647
rtibia 63.3456
rfoot -19.2814 -1.26557
rtoes -35.5438
lfemur -22.6383 -1.33684 -26.5112
ltibia 38.8677
lfoot -13.786 2.29816
ltoes -18.7711
108
root -1.26719 17.649 5.96008 535.44 -78.6828 -531.919
lowerback 23.9548 -3.86496 2.51434
upperback 7.16522 -5.07791 -0.511603
thorax -5.65035 -2.72747 -0.527851
lowerneck 0.223417 2.28601 1.71853
upperneck 0.198972 2.96597 -9.47062
head 0.208737 1.43309 -3.3305
rclavicle 1.98785e-014 1.35174e-014
rhumerus -36.6778 -18.2887 -51.0123
rradius 86.8753
rwrist -45.1618
rhand -9.37183 -29.4126
rfingers 7.12502
rthumb 16.5885 -58.7236
lclavicle 1.98785e-014 1.35174e-014
lhumerus 4.06915 -0.306511 72.061
lradius 72.2143
lwrist -6.06817
lhand -33.4254 11.782
lfingers 7.12502
lthumb -6.62486 41.6584
rfemur -59.1748 18.9853 16.7087
rtibia 70.2056
rfoot -19.8595 -2.59554
rtoes -31.162
lfemur -22.7416 -1.6096 -25.6204
ltibia 38.2365
lfoot -13.5792 3.23621
ltoes -19.5068
109
root -1.28536 17.7196 5.96491 532.994 -78.1526 -528.711
lowerback 23.577 -3.81964 3.25344
upperback 6.95871 -4.80801 -0.0844
thorax -5.69264 -2.59315 -0.5764
lowerneck 0.871724 3.8436 2.99005
upperneck 0.347385 5.07067 -11.1906
head 0.36285 2.49254 -4.17223
rclavicle 2.28602e-014 -3.85642e-014
rhumerus -36.489 -18.3568 -50.9881
rradius 86.7795
rwrist -45.2481
rhand -9.73958 -29.3044
rfingers 7.12502
rthumb 16.2344 -58.6447
lclavicle 2.28602e-014 -3.85642e-014
lhumerus -0.485276 -1.7592 73.2259
lradius 72.0272
lwrist -5.82473
lhand -33.8416 10.9766
lfingers 7.12502
lthumb -7.02667 40.8399
rfemur -59.99 19.4259 17.6273
rtibia 76.6805
rfoot -19.9517 -3.82894
rtoes -30.6247
lfemur -23.0911 -1.99916 -24.7595
ltibia 37.5883
lfoot -13.3626 4.05667
ltoes -19.3576
110
root -1.30498 17.7886 5.97254 531.87 -77.8958 -526.829
lowerback 23.1315 -3.84981 3.74636
upperback 6.65781 -4.69085 0.286493
thorax -5.79524 -2.52962 -0.502864
lowerneck 1.95929 5.41639 4.24436
upperneck 0.519395 7.22994 -13.1646
head 0.476693 3.5941 -4.60531
rclavicle 5.32743e-014 -3.18055e-015
rhumerus -36.4656 -18.1866 -50.8199
rradius 86.7748
rwrist -45.3188
rhand -10.0413 -29.2692
rfingers 7.12502
rthumb 15.9439 -58.633
lclavicle 5.32743e-014 -3.18055e-015
lhumerus -4.83558 -3.39851 74.497
lradius 70.835
lwrist -4.70862
lhand -33.7209 10.4737
lfingers 7.12502
lthumb -6.91016 40.3409
rfemur -60.538 19.4744 18.2149
rtibia 82.8051
rfoot -20.6349 -4.05439
rtoes -28.877
lfemur -23.4237 -2.35664 -24.2546
ltibia 36.8945
lfoot -13.1117 4.69826
ltoes -18.6171
111
root -1.31712 17.8478 5.97994 530.51 -77.8609 -524.775
lowerback 22.7101 -3.84864 4.431
upperback 6.80031 -4.55286 0.578638
thorax -5.44019 -2.46657 -0.645694
lowerneck 1.61433 6.91151 5.66059
upperneck 0.858508 9.3367 -14.647
head 0.961312 4.62514 -5.21251
rclavicle 8.18993e-014 -5.80451e-014
rhumerus -36.2919 -18.7955 -50.5914
rradius 86.9425
rwrist -45.4343
rhand -10.0867 -29.1131
rfingers 7.12502
rthumb 15.9002 -58.4803
lclavicle 8.18993e-014 -5.80451e-014
lhumerus -8.87376 -4.91893 76.2701
lradius 69.6842
lwrist -3.53965
lhand -32.8175 10.082
lfingers 7.12502
lthumb -6.03805 39.976
rfemur -60.6803 19.1673 18.8679
rtibia 88.4972
rfoot -21.2603 -3.81903
rtoes -27.5323
lfemur -23.8085 -2.55747 -23.7757
ltibia 36.3695
lfoot -12.8449 4.9743
ltoes -17.1254
112
root -1.31732 17.8918 5.98416 528.562 -77.839 -522.166
lowerback 22.4754 -3.84407 5.1869
upperback 6.77477 -4.37655 0.827579
thorax -5.36686 -2.38205 -0.864875
lowerneck 2.21023 8.21797 7.34556
upperneck 0.594709 11.1734 -16.049
head 1.1565 5.58307 -5.86929
rclavicle -7.0171e-014 3.18055e-015
rhumerus -36.2917 -19.3501 -50.3092
rradius 86.8393
rwrist -45.3865
rhand -9.81256 -28.9022
rfingers 7.12502
rthumb 16.1641 -58.2482
lclavicle -7.0171e-014 3.18055e-015
lhumerus -13.0084 -6.15548 78.1056
lradius 67.983
lwrist -2.69391
lhand -31.6047 9.33508
lfingers 7.12502
lthumb -4.86708 39.2592
rfemur -60.5041 18.7229 19.7058
rtibia 93.7832
rfoot -21.6691 -3.26519
rtoes -26.2943
lfemur -24.3316 -2.52121 -23.196
ltibia 36.0532
lfoot -12.5964 5.0859
ltoes -15.9007
113
root -1.32084 17.9135 5.9869 527.955 -77.6059 -521.151
lowerback 22.4032 -3.65218 5.70189
upperback 6.8068 -4.02236 0.914114
thorax -5.29621 -2.21185 -1.16432
lowerneck 2.81581 9.3427 8.76246
upperneck 0.218572 12.7681 -17.0513
head 1.30014 6.42895 -6.35884
rclavicle 1.90833e-014 -2.3059e-014
rhumerus -36.5584 -20.022 -49.7975
rradius 86.7626
rwrist -45.4878
rhand -9.38827 -28.8268
rfingers 7.12502
rthumb 16.5727 -58.1391
lclavicle 1.90833e-014 -2.3059e-014
lhumerus -17.035 -7.22921 79.9941
lradius 65.8752
lwrist -1.98251
lhand -29.5755 8.60365
lfingers 7.12502
lthumb -2.90748 38.5636
rfemur -59.8754 18.343 20.3665
rtibia 98.757
rfoot -21.9675 -2.70554
rtoes -27.0158
lfemur -24.7248 -2.2021 -22.9525
ltibia 35.9912
lfoot -12.6642 5.21056
ltoes -15.4061
114
root -1.32977 17.9064 5.98862 528.437 -77.1987 -521.524
lowerback 22.4122 -3.34879 5.97705
upperback 7.00331 -3.60391 0.832556
thorax -5.07561 -2.00987 -1.52892
lowerneck 3.37745 10.3883 10.0282
upperneck -0.410173 14.2405 -17.9285
head 1.38108 7.22167 -6.78177
rclavicle 4.79071e-014 -5.18828e-014
rhumerus -36.9725 -20.6841 -49.2367
rradius 86.8554
rwrist -45.7954
rhand -9.15023 -28.9226
rfingers 7.12502
rthumb 16.8018 -58.2157
lclavicle 4.79071e-014 -5.18828e-014
lhumerus -20.9489 -8.11091 81.6888
lradius 63.4675
lwrist -1.36136
lhand -27.4646 8.30953
lfingers 7.12502
lthumb -0.868839 38.2875
rfemur -58.7774 17.9778 20.8262
rtibia 103.375
rfoot -22.3288 -2.11463
rtoes -27.7067
lfemur -24.9285 -1.79584 -22.9686
ltibia 36.2244
lfoot -13.1221 5.33306
ltoes -15.1645
115
root -1.33524 17.8727 5.99148 529.298 -76.9631 -522.405
lowerback 22.5184 -3.1569 6.10801
upperback 7.17154 -3.3549 0.656719
thorax -4.94249 -1.889 -1.86107
lowerneck 4.32646 11.4137 11.3253
upperneck -1.3978 15.689 -18.983
head 1.34274 8.03271 -7.28683
rclavicle 4.05521e-014 -5.50634e-014
rhumerus -37.6522 -20.6818 -48.7217
rradius 87.4483
rwrist -46.4057
rhand -9.19807 -29.1202
rfingers 7.12502
rthumb 16.7558 -58.4171
lclavicle 4.05521e-014 -5.50634e-014
lhumerus -25.0168 -8.73768 83.1214
lradius 60.9115
lwrist -0.744676
lhand -26.446 8.80602
lfingers 7.12502
lthumb 0.114949 38.7857
rfemur -57.4129 17.2876 21.0187
rtibia 107.566
rfoot -22.5324 -1.08563
rtoes -26.6682
lfemur -25.1447 -1.57187 -23.1659
ltibia 36.7537
lfoot -13.757 5.45662
ltoes -15.5344
116
root -1.33527 17.8113 5.99818 530.461 -76.9142 -523.718
lowerback 22.772 -2.98428 6.17708
upperback 7.33792 -3.13519 0.473649
thorax -4.8829 -1.78406 -2.1519
lowerneck 5.46823 12.311 12.6526
upperneck -2.4928 16.9893 -20.4463
head 1.2972 8.78784 -7.941
rclavicle 9.93923e-016 -3.77691e-015
rhumerus -38.5773 -20.3041 -48.0338
rradius 88.4657
rwrist -47.2368
rhand -9.54226 -29.2613
rfingers 7.12502
rthumb 16.4244 -58.586
lclavicle 9.93923e-016 -3.77691e-015
lhumerus -29.7835 -8.92583 84.6889
lradius 58.7021
lwrist -0.473289
lhand -26.234 9.17877
lfingers 7.12502
lthumb 0.319715 39.1583
rfemur -55.6626 16.1994 20.9486
rtibia 111.356
rfoot -22.6498 -0.154538
rtoes -25.8149
lfemur -25.4208 -1.56396 -23.5601
ltibia 37.6387
lfoot -14.5912 5.72395
ltoes -16.5085
117
root -1.35218 17.7312 6.00915 531.347 -76.4019 -525.125
lowerback 23.2645 -2.59275 6.28205
upperback 7.67195 -2.64056 0.309637
thorax -4.73041 -1.55097 -2.51511
lowerneck 6.11191 12.9672 13.1425
upperneck -3.5349 17.8763 -20.9077
head 1.13476 9.30398 -8.15905
rclavicle 2.62396e-014 -4.37326e-015
rhumerus -39.9026 -20.1302 -46.8354
rradius 89.6851
rwrist -48.1183
rhand -9.86574 -29.5883
rfingers 7.12502
rthumb 16.1129 -58.9385
lclavicle 2.62396e-014 -4.37326e-015
lhumerus -33.9679 -8.74034 86.0344
lradius 55.6751
lwrist -0.685816
lhand -26.4228 9.03459
lfingers 7.12502
lthumb 0.137394 39.0143
rfemur -52.9793 15.4676 20.8242
rtibia 114.581
rfoot -23.0101 0.365947
rtoes -25.7011
lfemur -25.3589 -1.38511 -23.9078
ltibia 38.7798
lfoot -15.8548 6.12823
ltoes -15.939
